<mxfile host="app.diagrams.net" modified="2023-09-24T11:56:52.677Z" agent="Mozilla/5.0 (Windows NT 10.0; Win64; x64) AppleWebKit/537.36 (KHTML, like Gecko) Chrome/116.0.0.0 Safari/537.36" etag="-9T0gC8RVd-j7p2P3ieM" version="21.1.7" type="device">
  <diagram name="Page-1" id="GVmKb3WYu-LenIv8AgKR">
    <mxGraphModel dx="1638" dy="728" grid="1" gridSize="10" guides="1" tooltips="1" connect="1" arrows="1" fold="1" page="1" pageScale="1" pageWidth="850" pageHeight="1100" math="0" shadow="0">
      <root>
        <mxCell id="0" />
        <mxCell id="1" parent="0" />
        <mxCell id="UiI-ZtVHUpSKb0rADPBv-47" style="edgeStyle=orthogonalEdgeStyle;rounded=0;orthogonalLoop=1;jettySize=auto;html=1;exitX=0;exitY=0.5;exitDx=0;exitDy=0;" edge="1" parent="1" source="UiI-ZtVHUpSKb0rADPBv-1" target="UiI-ZtVHUpSKb0rADPBv-2">
          <mxGeometry relative="1" as="geometry" />
        </mxCell>
        <mxCell id="UiI-ZtVHUpSKb0rADPBv-48" style="edgeStyle=orthogonalEdgeStyle;rounded=0;orthogonalLoop=1;jettySize=auto;html=1;exitX=0.5;exitY=1;exitDx=0;exitDy=0;entryX=0.5;entryY=0;entryDx=0;entryDy=0;" edge="1" parent="1" source="UiI-ZtVHUpSKb0rADPBv-1" target="UiI-ZtVHUpSKb0rADPBv-5">
          <mxGeometry relative="1" as="geometry" />
        </mxCell>
        <mxCell id="UiI-ZtVHUpSKb0rADPBv-49" style="edgeStyle=orthogonalEdgeStyle;rounded=0;orthogonalLoop=1;jettySize=auto;html=1;exitX=1;exitY=0.5;exitDx=0;exitDy=0;entryX=0.5;entryY=0;entryDx=0;entryDy=0;" edge="1" parent="1" source="UiI-ZtVHUpSKb0rADPBv-1" target="UiI-ZtVHUpSKb0rADPBv-6">
          <mxGeometry relative="1" as="geometry" />
        </mxCell>
        <mxCell id="UiI-ZtVHUpSKb0rADPBv-1" value="USER" style="rounded=0;whiteSpace=wrap;html=1;" vertex="1" parent="1">
          <mxGeometry x="380" y="240" width="45" height="30" as="geometry" />
        </mxCell>
        <mxCell id="UiI-ZtVHUpSKb0rADPBv-50" style="edgeStyle=orthogonalEdgeStyle;rounded=0;orthogonalLoop=1;jettySize=auto;html=1;exitX=0;exitY=0.25;exitDx=0;exitDy=0;entryX=0.905;entryY=0.886;entryDx=0;entryDy=0;entryPerimeter=0;" edge="1" parent="1" source="UiI-ZtVHUpSKb0rADPBv-2" target="UiI-ZtVHUpSKb0rADPBv-10">
          <mxGeometry relative="1" as="geometry" />
        </mxCell>
        <mxCell id="UiI-ZtVHUpSKb0rADPBv-51" style="edgeStyle=orthogonalEdgeStyle;rounded=0;orthogonalLoop=1;jettySize=auto;html=1;exitX=0;exitY=0.5;exitDx=0;exitDy=0;" edge="1" parent="1" source="UiI-ZtVHUpSKb0rADPBv-2" target="UiI-ZtVHUpSKb0rADPBv-9">
          <mxGeometry relative="1" as="geometry" />
        </mxCell>
        <mxCell id="UiI-ZtVHUpSKb0rADPBv-60" style="edgeStyle=orthogonalEdgeStyle;rounded=0;orthogonalLoop=1;jettySize=auto;html=1;exitX=0.5;exitY=1;exitDx=0;exitDy=0;entryX=0.5;entryY=0;entryDx=0;entryDy=0;" edge="1" parent="1" source="UiI-ZtVHUpSKb0rADPBv-2" target="UiI-ZtVHUpSKb0rADPBv-57">
          <mxGeometry relative="1" as="geometry" />
        </mxCell>
        <mxCell id="UiI-ZtVHUpSKb0rADPBv-2" value="ADMINISTRATOR" style="rounded=0;whiteSpace=wrap;html=1;" vertex="1" parent="1">
          <mxGeometry x="210" y="340" width="110" height="40" as="geometry" />
        </mxCell>
        <mxCell id="UiI-ZtVHUpSKb0rADPBv-52" style="edgeStyle=orthogonalEdgeStyle;rounded=0;orthogonalLoop=1;jettySize=auto;html=1;exitX=0.5;exitY=1;exitDx=0;exitDy=0;entryX=0.5;entryY=1;entryDx=0;entryDy=0;" edge="1" parent="1" source="UiI-ZtVHUpSKb0rADPBv-5" target="UiI-ZtVHUpSKb0rADPBv-12">
          <mxGeometry relative="1" as="geometry" />
        </mxCell>
        <mxCell id="UiI-ZtVHUpSKb0rADPBv-53" style="edgeStyle=orthogonalEdgeStyle;rounded=0;orthogonalLoop=1;jettySize=auto;html=1;exitX=1;exitY=0.5;exitDx=0;exitDy=0;entryX=0.441;entryY=1.069;entryDx=0;entryDy=0;entryPerimeter=0;" edge="1" parent="1" source="UiI-ZtVHUpSKb0rADPBv-5" target="UiI-ZtVHUpSKb0rADPBv-13">
          <mxGeometry relative="1" as="geometry" />
        </mxCell>
        <mxCell id="UiI-ZtVHUpSKb0rADPBv-61" style="edgeStyle=orthogonalEdgeStyle;rounded=0;orthogonalLoop=1;jettySize=auto;html=1;exitX=0.75;exitY=1;exitDx=0;exitDy=0;" edge="1" parent="1" source="UiI-ZtVHUpSKb0rADPBv-5" target="UiI-ZtVHUpSKb0rADPBv-58">
          <mxGeometry relative="1" as="geometry" />
        </mxCell>
        <mxCell id="UiI-ZtVHUpSKb0rADPBv-5" value="INSTRUCTOR" style="rounded=0;whiteSpace=wrap;html=1;" vertex="1" parent="1">
          <mxGeometry x="370" y="340" width="110" height="40" as="geometry" />
        </mxCell>
        <mxCell id="UiI-ZtVHUpSKb0rADPBv-54" style="edgeStyle=orthogonalEdgeStyle;rounded=0;orthogonalLoop=1;jettySize=auto;html=1;entryX=0;entryY=0.5;entryDx=0;entryDy=0;" edge="1" parent="1" source="UiI-ZtVHUpSKb0rADPBv-6" target="UiI-ZtVHUpSKb0rADPBv-16">
          <mxGeometry relative="1" as="geometry" />
        </mxCell>
        <mxCell id="UiI-ZtVHUpSKb0rADPBv-55" style="edgeStyle=orthogonalEdgeStyle;rounded=0;orthogonalLoop=1;jettySize=auto;html=1;exitX=1;exitY=0.25;exitDx=0;exitDy=0;entryX=0.414;entryY=1.053;entryDx=0;entryDy=0;entryPerimeter=0;" edge="1" parent="1" source="UiI-ZtVHUpSKb0rADPBv-6" target="UiI-ZtVHUpSKb0rADPBv-14">
          <mxGeometry relative="1" as="geometry" />
        </mxCell>
        <mxCell id="UiI-ZtVHUpSKb0rADPBv-62" style="edgeStyle=orthogonalEdgeStyle;rounded=0;orthogonalLoop=1;jettySize=auto;html=1;exitX=0.5;exitY=1;exitDx=0;exitDy=0;entryX=0.5;entryY=0;entryDx=0;entryDy=0;" edge="1" parent="1" source="UiI-ZtVHUpSKb0rADPBv-6" target="UiI-ZtVHUpSKb0rADPBv-59">
          <mxGeometry relative="1" as="geometry" />
        </mxCell>
        <mxCell id="UiI-ZtVHUpSKb0rADPBv-6" value="STUDENT" style="rounded=0;whiteSpace=wrap;html=1;" vertex="1" parent="1">
          <mxGeometry x="540" y="340" width="110" height="40" as="geometry" />
        </mxCell>
        <mxCell id="UiI-ZtVHUpSKb0rADPBv-9" value="ADMIN NAME" style="ellipse;whiteSpace=wrap;html=1;" vertex="1" parent="1">
          <mxGeometry x="70" y="380" width="100" height="30" as="geometry" />
        </mxCell>
        <mxCell id="UiI-ZtVHUpSKb0rADPBv-10" value="ADMIN ID" style="ellipse;whiteSpace=wrap;html=1;" vertex="1" parent="1">
          <mxGeometry x="70" y="300" width="100" height="30" as="geometry" />
        </mxCell>
        <mxCell id="UiI-ZtVHUpSKb0rADPBv-43" style="edgeStyle=orthogonalEdgeStyle;rounded=0;orthogonalLoop=1;jettySize=auto;html=1;exitX=0;exitY=0.5;exitDx=0;exitDy=0;" edge="1" parent="1" source="UiI-ZtVHUpSKb0rADPBv-11" target="UiI-ZtVHUpSKb0rADPBv-18">
          <mxGeometry relative="1" as="geometry" />
        </mxCell>
        <mxCell id="UiI-ZtVHUpSKb0rADPBv-44" style="edgeStyle=orthogonalEdgeStyle;rounded=0;orthogonalLoop=1;jettySize=auto;html=1;exitX=1;exitY=0.5;exitDx=0;exitDy=0;entryX=0;entryY=0.5;entryDx=0;entryDy=0;" edge="1" parent="1" source="UiI-ZtVHUpSKb0rADPBv-11" target="UiI-ZtVHUpSKb0rADPBv-20">
          <mxGeometry relative="1" as="geometry" />
        </mxCell>
        <mxCell id="UiI-ZtVHUpSKb0rADPBv-45" style="edgeStyle=orthogonalEdgeStyle;rounded=0;orthogonalLoop=1;jettySize=auto;html=1;exitX=0.5;exitY=0;exitDx=0;exitDy=0;entryX=0.5;entryY=1;entryDx=0;entryDy=0;" edge="1" parent="1" source="UiI-ZtVHUpSKb0rADPBv-11" target="UiI-ZtVHUpSKb0rADPBv-21">
          <mxGeometry relative="1" as="geometry" />
        </mxCell>
        <mxCell id="UiI-ZtVHUpSKb0rADPBv-46" style="edgeStyle=orthogonalEdgeStyle;rounded=0;orthogonalLoop=1;jettySize=auto;html=1;entryX=0.5;entryY=1;entryDx=0;entryDy=0;" edge="1" parent="1" source="UiI-ZtVHUpSKb0rADPBv-11" target="UiI-ZtVHUpSKb0rADPBv-19">
          <mxGeometry relative="1" as="geometry" />
        </mxCell>
        <mxCell id="UiI-ZtVHUpSKb0rADPBv-11" value="ACCOUNT" style="rounded=0;whiteSpace=wrap;html=1;" vertex="1" parent="1">
          <mxGeometry x="372.5" y="110" width="65" height="30" as="geometry" />
        </mxCell>
        <mxCell id="UiI-ZtVHUpSKb0rADPBv-12" value="INSTRUCTOR ID" style="ellipse;whiteSpace=wrap;html=1;" vertex="1" parent="1">
          <mxGeometry x="293" y="300" width="100" height="30" as="geometry" />
        </mxCell>
        <mxCell id="UiI-ZtVHUpSKb0rADPBv-13" value="INSTRUCTOR NAME" style="ellipse;whiteSpace=wrap;html=1;" vertex="1" parent="1">
          <mxGeometry x="455.5" y="300" width="120" height="30" as="geometry" />
        </mxCell>
        <mxCell id="UiI-ZtVHUpSKb0rADPBv-14" value="STUDENT NAME" style="ellipse;whiteSpace=wrap;html=1;" vertex="1" parent="1">
          <mxGeometry x="680" y="300" width="100" height="30" as="geometry" />
        </mxCell>
        <mxCell id="UiI-ZtVHUpSKb0rADPBv-16" value="STUDENT ID" style="ellipse;whiteSpace=wrap;html=1;" vertex="1" parent="1">
          <mxGeometry x="680" y="380" width="100" height="30" as="geometry" />
        </mxCell>
        <mxCell id="UiI-ZtVHUpSKb0rADPBv-18" value="EMAIL" style="ellipse;whiteSpace=wrap;html=1;" vertex="1" parent="1">
          <mxGeometry x="215" y="120" width="100" height="30" as="geometry" />
        </mxCell>
        <mxCell id="UiI-ZtVHUpSKb0rADPBv-19" value="UERNAME" style="ellipse;whiteSpace=wrap;html=1;" vertex="1" parent="1">
          <mxGeometry x="275" y="50" width="100" height="30" as="geometry" />
        </mxCell>
        <mxCell id="UiI-ZtVHUpSKb0rADPBv-20" value="PASWORD" style="ellipse;whiteSpace=wrap;html=1;" vertex="1" parent="1">
          <mxGeometry x="480" y="120" width="100" height="30" as="geometry" />
        </mxCell>
        <mxCell id="UiI-ZtVHUpSKb0rADPBv-21" value="AGE" style="ellipse;whiteSpace=wrap;html=1;" vertex="1" parent="1">
          <mxGeometry x="430" y="50" width="100" height="30" as="geometry" />
        </mxCell>
        <mxCell id="UiI-ZtVHUpSKb0rADPBv-67" style="edgeStyle=orthogonalEdgeStyle;rounded=0;orthogonalLoop=1;jettySize=auto;html=1;exitX=0;exitY=0.5;exitDx=0;exitDy=0;entryX=0.5;entryY=1;entryDx=0;entryDy=0;" edge="1" parent="1" source="UiI-ZtVHUpSKb0rADPBv-22" target="UiI-ZtVHUpSKb0rADPBv-23">
          <mxGeometry relative="1" as="geometry" />
        </mxCell>
        <mxCell id="UiI-ZtVHUpSKb0rADPBv-68" style="edgeStyle=orthogonalEdgeStyle;rounded=0;orthogonalLoop=1;jettySize=auto;html=1;exitX=1;exitY=0.5;exitDx=0;exitDy=0;entryX=0.5;entryY=1;entryDx=0;entryDy=0;" edge="1" parent="1" source="UiI-ZtVHUpSKb0rADPBv-22" target="UiI-ZtVHUpSKb0rADPBv-25">
          <mxGeometry relative="1" as="geometry" />
        </mxCell>
        <mxCell id="UiI-ZtVHUpSKb0rADPBv-69" style="edgeStyle=orthogonalEdgeStyle;rounded=0;orthogonalLoop=1;jettySize=auto;html=1;exitX=0.5;exitY=1;exitDx=0;exitDy=0;entryX=0.5;entryY=0;entryDx=0;entryDy=0;" edge="1" parent="1" source="UiI-ZtVHUpSKb0rADPBv-22" target="UiI-ZtVHUpSKb0rADPBv-24">
          <mxGeometry relative="1" as="geometry" />
        </mxCell>
        <mxCell id="UiI-ZtVHUpSKb0rADPBv-71" style="edgeStyle=orthogonalEdgeStyle;rounded=0;orthogonalLoop=1;jettySize=auto;html=1;exitX=0.75;exitY=1;exitDx=0;exitDy=0;entryX=0.5;entryY=0;entryDx=0;entryDy=0;" edge="1" parent="1" source="UiI-ZtVHUpSKb0rADPBv-22" target="UiI-ZtVHUpSKb0rADPBv-70">
          <mxGeometry relative="1" as="geometry" />
        </mxCell>
        <mxCell id="UiI-ZtVHUpSKb0rADPBv-22" value="COURSE" style="rounded=0;whiteSpace=wrap;html=1;" vertex="1" parent="1">
          <mxGeometry x="365" y="570" width="60" height="30" as="geometry" />
        </mxCell>
        <mxCell id="UiI-ZtVHUpSKb0rADPBv-23" value="COURSE NAME" style="ellipse;whiteSpace=wrap;html=1;" vertex="1" parent="1">
          <mxGeometry x="244.5" y="540" width="100" height="30" as="geometry" />
        </mxCell>
        <mxCell id="UiI-ZtVHUpSKb0rADPBv-24" value="COURSE ID" style="ellipse;whiteSpace=wrap;html=1;" vertex="1" parent="1">
          <mxGeometry x="244.5" y="630" width="100" height="30" as="geometry" />
        </mxCell>
        <mxCell id="UiI-ZtVHUpSKb0rADPBv-25" value="COURSE CATEGORY" style="ellipse;whiteSpace=wrap;html=1;" vertex="1" parent="1">
          <mxGeometry x="450" y="545" width="140" height="25" as="geometry" />
        </mxCell>
        <mxCell id="UiI-ZtVHUpSKb0rADPBv-26" value="VIDEOS" style="rounded=0;whiteSpace=wrap;html=1;" vertex="1" parent="1">
          <mxGeometry x="215" y="710" width="70" height="30" as="geometry" />
        </mxCell>
        <mxCell id="UiI-ZtVHUpSKb0rADPBv-27" value="QUIZ" style="rounded=0;whiteSpace=wrap;html=1;" vertex="1" parent="1">
          <mxGeometry x="305" y="710" width="70" height="30" as="geometry" />
        </mxCell>
        <mxCell id="UiI-ZtVHUpSKb0rADPBv-28" value="ASSIGNMENT" style="rounded=0;whiteSpace=wrap;html=1;" vertex="1" parent="1">
          <mxGeometry x="395" y="710" width="80" height="30" as="geometry" />
        </mxCell>
        <mxCell id="UiI-ZtVHUpSKb0rADPBv-29" value="DOCUMENT" style="rounded=0;whiteSpace=wrap;html=1;" vertex="1" parent="1">
          <mxGeometry x="495.5" y="710" width="70" height="30" as="geometry" />
        </mxCell>
        <mxCell id="UiI-ZtVHUpSKb0rADPBv-30" value="DISCUSSION FORUM" style="rounded=0;whiteSpace=wrap;html=1;" vertex="1" parent="1">
          <mxGeometry x="585" y="710" width="110" height="30" as="geometry" />
        </mxCell>
        <mxCell id="UiI-ZtVHUpSKb0rADPBv-31" value="CERTIFICATE" style="rounded=0;whiteSpace=wrap;html=1;" vertex="1" parent="1">
          <mxGeometry x="115" y="710" width="80" height="30" as="geometry" />
        </mxCell>
        <mxCell id="UiI-ZtVHUpSKb0rADPBv-40" style="edgeStyle=orthogonalEdgeStyle;rounded=0;orthogonalLoop=1;jettySize=auto;html=1;" edge="1" parent="1">
          <mxGeometry relative="1" as="geometry">
            <mxPoint x="400" y="150" as="targetPoint" />
            <mxPoint x="400" y="150" as="sourcePoint" />
            <Array as="points">
              <mxPoint x="400" y="150" />
              <mxPoint x="400" y="150" />
            </Array>
          </mxGeometry>
        </mxCell>
        <mxCell id="UiI-ZtVHUpSKb0rADPBv-41" style="edgeStyle=orthogonalEdgeStyle;rounded=0;orthogonalLoop=1;jettySize=auto;html=1;exitX=0.5;exitY=0;exitDx=0;exitDy=0;entryX=0.423;entryY=1;entryDx=0;entryDy=0;entryPerimeter=0;" edge="1" parent="1" source="UiI-ZtVHUpSKb0rADPBv-34" target="UiI-ZtVHUpSKb0rADPBv-11">
          <mxGeometry relative="1" as="geometry" />
        </mxCell>
        <mxCell id="UiI-ZtVHUpSKb0rADPBv-34" value="HAS" style="rhombus;whiteSpace=wrap;html=1;" vertex="1" parent="1">
          <mxGeometry x="370" y="160" width="60" height="50" as="geometry" />
        </mxCell>
        <mxCell id="UiI-ZtVHUpSKb0rADPBv-42" value="" style="endArrow=none;html=1;rounded=0;exitX=0.45;exitY=-0.006;exitDx=0;exitDy=0;exitPerimeter=0;" edge="1" parent="1" source="UiI-ZtVHUpSKb0rADPBv-1">
          <mxGeometry width="50" height="50" relative="1" as="geometry">
            <mxPoint x="370" y="260" as="sourcePoint" />
            <mxPoint x="400" y="210" as="targetPoint" />
          </mxGeometry>
        </mxCell>
        <mxCell id="UiI-ZtVHUpSKb0rADPBv-63" style="edgeStyle=orthogonalEdgeStyle;rounded=0;orthogonalLoop=1;jettySize=auto;html=1;exitX=0.5;exitY=1;exitDx=0;exitDy=0;entryX=0.5;entryY=0;entryDx=0;entryDy=0;" edge="1" parent="1" source="UiI-ZtVHUpSKb0rADPBv-57" target="UiI-ZtVHUpSKb0rADPBv-22">
          <mxGeometry relative="1" as="geometry">
            <mxPoint x="400" y="540" as="targetPoint" />
          </mxGeometry>
        </mxCell>
        <mxCell id="UiI-ZtVHUpSKb0rADPBv-57" value="VIEW&lt;br&gt;CREATE&lt;br&gt;EDIT&lt;br&gt;DELETE" style="rhombus;whiteSpace=wrap;html=1;" vertex="1" parent="1">
          <mxGeometry x="197.5" y="420" width="135" height="80" as="geometry" />
        </mxCell>
        <mxCell id="UiI-ZtVHUpSKb0rADPBv-64" style="edgeStyle=orthogonalEdgeStyle;rounded=0;orthogonalLoop=1;jettySize=auto;html=1;entryX=0.5;entryY=0;entryDx=0;entryDy=0;" edge="1" parent="1" source="UiI-ZtVHUpSKb0rADPBv-58" target="UiI-ZtVHUpSKb0rADPBv-22">
          <mxGeometry relative="1" as="geometry">
            <mxPoint x="400.25" y="540" as="targetPoint" />
          </mxGeometry>
        </mxCell>
        <mxCell id="UiI-ZtVHUpSKb0rADPBv-58" value="VIEW&lt;br&gt;CREATE&lt;br&gt;EDIT" style="rhombus;whiteSpace=wrap;html=1;" vertex="1" parent="1">
          <mxGeometry x="345" y="435" width="110.5" height="60" as="geometry" />
        </mxCell>
        <mxCell id="UiI-ZtVHUpSKb0rADPBv-65" style="edgeStyle=orthogonalEdgeStyle;rounded=0;orthogonalLoop=1;jettySize=auto;html=1;exitX=0.5;exitY=1;exitDx=0;exitDy=0;entryX=0.5;entryY=0;entryDx=0;entryDy=0;" edge="1" parent="1" source="UiI-ZtVHUpSKb0rADPBv-59" target="UiI-ZtVHUpSKb0rADPBv-22">
          <mxGeometry relative="1" as="geometry">
            <mxPoint x="400" y="540" as="targetPoint" />
          </mxGeometry>
        </mxCell>
        <mxCell id="UiI-ZtVHUpSKb0rADPBv-59" value="VIEW" style="rhombus;whiteSpace=wrap;html=1;" vertex="1" parent="1">
          <mxGeometry x="545" y="445" width="100" height="50" as="geometry" />
        </mxCell>
        <mxCell id="UiI-ZtVHUpSKb0rADPBv-72" style="edgeStyle=orthogonalEdgeStyle;rounded=0;orthogonalLoop=1;jettySize=auto;html=1;exitX=0.5;exitY=1;exitDx=0;exitDy=0;entryX=0.375;entryY=-0.093;entryDx=0;entryDy=0;entryPerimeter=0;" edge="1" parent="1" source="UiI-ZtVHUpSKb0rADPBv-70" target="UiI-ZtVHUpSKb0rADPBv-31">
          <mxGeometry relative="1" as="geometry" />
        </mxCell>
        <mxCell id="UiI-ZtVHUpSKb0rADPBv-73" style="edgeStyle=orthogonalEdgeStyle;rounded=0;orthogonalLoop=1;jettySize=auto;html=1;exitX=0.5;exitY=1;exitDx=0;exitDy=0;entryX=0.5;entryY=0;entryDx=0;entryDy=0;" edge="1" parent="1" source="UiI-ZtVHUpSKb0rADPBv-70" target="UiI-ZtVHUpSKb0rADPBv-26">
          <mxGeometry relative="1" as="geometry" />
        </mxCell>
        <mxCell id="UiI-ZtVHUpSKb0rADPBv-74" style="edgeStyle=orthogonalEdgeStyle;rounded=0;orthogonalLoop=1;jettySize=auto;html=1;exitX=0.5;exitY=1;exitDx=0;exitDy=0;entryX=0.5;entryY=0;entryDx=0;entryDy=0;" edge="1" parent="1" source="UiI-ZtVHUpSKb0rADPBv-70" target="UiI-ZtVHUpSKb0rADPBv-27">
          <mxGeometry relative="1" as="geometry" />
        </mxCell>
        <mxCell id="UiI-ZtVHUpSKb0rADPBv-75" style="edgeStyle=orthogonalEdgeStyle;rounded=0;orthogonalLoop=1;jettySize=auto;html=1;exitX=0.5;exitY=1;exitDx=0;exitDy=0;entryX=0.5;entryY=0;entryDx=0;entryDy=0;" edge="1" parent="1" source="UiI-ZtVHUpSKb0rADPBv-70" target="UiI-ZtVHUpSKb0rADPBv-28">
          <mxGeometry relative="1" as="geometry" />
        </mxCell>
        <mxCell id="UiI-ZtVHUpSKb0rADPBv-76" style="edgeStyle=orthogonalEdgeStyle;rounded=0;orthogonalLoop=1;jettySize=auto;html=1;exitX=0.5;exitY=1;exitDx=0;exitDy=0;entryX=0.5;entryY=0;entryDx=0;entryDy=0;" edge="1" parent="1" source="UiI-ZtVHUpSKb0rADPBv-70" target="UiI-ZtVHUpSKb0rADPBv-29">
          <mxGeometry relative="1" as="geometry" />
        </mxCell>
        <mxCell id="UiI-ZtVHUpSKb0rADPBv-77" style="edgeStyle=orthogonalEdgeStyle;rounded=0;orthogonalLoop=1;jettySize=auto;html=1;exitX=0.5;exitY=1;exitDx=0;exitDy=0;" edge="1" parent="1" source="UiI-ZtVHUpSKb0rADPBv-70" target="UiI-ZtVHUpSKb0rADPBv-30">
          <mxGeometry relative="1" as="geometry" />
        </mxCell>
        <mxCell id="UiI-ZtVHUpSKb0rADPBv-70" value="CONTAINS" style="rhombus;whiteSpace=wrap;html=1;" vertex="1" parent="1">
          <mxGeometry x="425" y="625" width="80" height="40" as="geometry" />
        </mxCell>
      </root>
    </mxGraphModel>
  </diagram>
</mxfile>
